<svg width="90" height="14" viewBox="0 0 90 14" fill="none" xmlns="http://www.w3.org/2000/svg">
<path d="M5.392 13.192C4.64533 13.192 3.94133 13.0587 3.28 12.792C2.62933 12.5147 2.064 12.1253 1.584 11.624C1.11467 11.1227 0.762667 10.5307 0.528 9.848L2.56 8.936C2.85867 9.58667 3.26933 10.0987 3.792 10.472C4.32533 10.8453 4.912 11.032 5.552 11.032C5.89333 11.032 6.18667 10.9787 6.432 10.872C6.67733 10.7653 6.86933 10.6213 7.008 10.44C7.14667 10.248 7.216 10.024 7.216 9.768C7.216 9.49067 7.13067 9.256 6.96 9.064C6.78933 8.86133 6.52267 8.70133 6.16 8.584L3.824 7.816C2.87467 7.50667 2.16 7.06933 1.68 6.504C1.2 5.928 0.96 5.24 0.96 4.44C0.96 3.736 1.13067 3.11733 1.472 2.584C1.824 2.05067 2.30933 1.63467 2.928 1.336C3.55733 1.03733 4.27733 0.888 5.088 0.888C5.80267 0.888 6.464 1.01067 7.072 1.256C7.68 1.50133 8.20267 1.848 8.64 2.296C9.088 2.744 9.424 3.28267 9.648 3.912L7.632 4.824C7.408 4.26933 7.072 3.83733 6.624 3.528C6.176 3.208 5.664 3.048 5.088 3.048C4.75733 3.048 4.464 3.10133 4.208 3.208C3.952 3.31467 3.75467 3.46933 3.616 3.672C3.47733 3.864 3.408 4.088 3.408 4.344C3.408 4.62133 3.49867 4.86667 3.68 5.08C3.86133 5.28267 4.13333 5.44267 4.496 5.56L6.784 6.296C7.744 6.60533 8.45867 7.03733 8.928 7.592C9.408 8.14667 9.648 8.824 9.648 9.624C9.648 10.3173 9.46667 10.936 9.104 11.48C8.74133 12.0133 8.24 12.4347 7.6 12.744C6.97067 13.0427 6.23467 13.192 5.392 13.192ZM19.5434 13.192C18.69 13.192 17.8954 13.0373 17.1594 12.728C16.4234 12.4187 15.778 11.9867 15.2234 11.432C14.6687 10.8773 14.2367 10.2267 13.9274 9.48C13.618 8.73333 13.4634 7.91733 13.4634 7.032C13.4634 6.14667 13.6127 5.33067 13.9114 4.584C14.21 3.82667 14.6314 3.176 15.1754 2.632C15.7194 2.07733 16.354 1.65067 17.0794 1.352C17.8154 1.04267 18.6154 0.888 19.4794 0.888C20.3434 0.888 21.1167 1.032 21.7994 1.32C22.4927 1.608 23.0794 1.992 23.5594 2.472C24.0394 2.952 24.3807 3.48533 24.5834 4.072L22.3914 5.128C22.1887 4.552 21.8314 4.07733 21.3194 3.704C20.818 3.32 20.2047 3.128 19.4794 3.128C18.7754 3.128 18.1567 3.29333 17.6234 3.624C17.09 3.95467 16.674 4.41333 16.3754 5C16.0874 5.576 15.9434 6.25333 15.9434 7.032C15.9434 7.81067 16.098 8.49333 16.4074 9.08C16.7167 9.66667 17.138 10.1253 17.6714 10.456C18.2154 10.7867 18.8394 10.952 19.5434 10.952C20.0874 10.952 20.594 10.8507 21.0634 10.648C21.5434 10.4347 21.9274 10.1307 22.2154 9.736C22.514 9.34133 22.6634 8.86667 22.6634 8.312V7.32L23.7994 8.28H19.4794V6.2H25.1434V7.464C25.1434 8.43467 24.9834 9.28267 24.6634 10.008C24.3434 10.7227 23.9114 11.32 23.3674 11.8C22.834 12.2693 22.2314 12.6213 21.5594 12.856C20.898 13.08 20.226 13.192 19.5434 13.192ZM29.0747 13V1.08H31.5547V13H29.0747ZM36.0685 13V1.08H37.9725L44.3725 9.512L43.3485 9.752V1.08H45.8285V13H43.9085L37.6205 4.504L38.5485 4.264V13H36.0685ZM54.6795 13.192C53.9328 13.192 53.2288 13.0587 52.5675 12.792C51.9168 12.5147 51.3515 12.1253 50.8715 11.624C50.4022 11.1227 50.0502 10.5307 49.8155 9.848L51.8475 8.936C52.1462 9.58667 52.5568 10.0987 53.0795 10.472C53.6128 10.8453 54.1995 11.032 54.8395 11.032C55.1808 11.032 55.4742 10.9787 55.7195 10.872C55.9648 10.7653 56.1568 10.6213 56.2955 10.44C56.4342 10.248 56.5035 10.024 56.5035 9.768C56.5035 9.49067 56.4182 9.256 56.2475 9.064C56.0768 8.86133 55.8102 8.70133 55.4475 8.584L53.1115 7.816C52.1622 7.50667 51.4475 7.06933 50.9675 6.504C50.4875 5.928 50.2475 5.24 50.2475 4.44C50.2475 3.736 50.4182 3.11733 50.7595 2.584C51.1115 2.05067 51.5968 1.63467 52.2155 1.336C52.8448 1.03733 53.5648 0.888 54.3755 0.888C55.0902 0.888 55.7515 1.01067 56.3595 1.256C56.9675 1.50133 57.4902 1.848 57.9275 2.296C58.3755 2.744 58.7115 3.28267 58.9355 3.912L56.9195 4.824C56.6955 4.26933 56.3595 3.83733 55.9115 3.528C55.4635 3.208 54.9515 3.048 54.3755 3.048C54.0448 3.048 53.7515 3.10133 53.4955 3.208C53.2395 3.31467 53.0422 3.46933 52.9035 3.672C52.7648 3.864 52.6955 4.088 52.6955 4.344C52.6955 4.62133 52.7862 4.86667 52.9675 5.08C53.1488 5.28267 53.4208 5.44267 53.7835 5.56L56.0715 6.296C57.0315 6.60533 57.7462 7.03733 58.2155 7.592C58.6955 8.14667 58.9355 8.824 58.9355 9.624C58.9355 10.3173 58.7542 10.936 58.3915 11.48C58.0288 12.0133 57.5275 12.4347 56.8875 12.744C56.2582 13.0427 55.5222 13.192 54.6795 13.192ZM63.1029 13V1.08H65.5829V13H63.1029ZM72.2406 13V3.24H69.2166V1.08H77.6966V3.24H74.7206V13H72.2406ZM81.3248 13V1.08H89.3408V3.24H83.8048V5.944H89.0208V8.104H83.8048V10.84H89.3408V13H81.3248Z" fill="white"/>
</svg>
