<svg width="662" height="619" viewBox="0 0 662 619" fill="none" xmlns="http://www.w3.org/2000/svg">
<g clip-path="url(#clip0_2_1312)">
<path d="M566.095 727.029L908.01 529.623L340.958 202.238L-0.95752 399.642L566.095 727.029Z" fill="#2516DF"/>
<path d="M895.218 529.624L340.963 209.626L11.8385 399.64L566.098 719.644L895.218 529.624Z" fill="#A9A2F6"/>
<path d="M459.762 655.427L562.052 596.368L668.375 657.752L566.081 716.811L459.762 655.427V655.427ZM342.126 469.397L436.465 523.862L334.175 582.918L239.834 528.451L342.126 469.397ZM658.338 395.764L559.047 453.087L464.708 398.622L563.999 341.297L658.338 395.764V395.764ZM684.634 525.598L783.923 468.271L890.244 529.655L790.951 586.979L684.634 525.598V525.598ZM677.126 529.931L783.447 591.313L675.879 653.418L569.56 592.035L677.126 529.931V529.931ZM566.553 457.423L665.842 400.096L776.415 463.937L677.126 521.262L566.553 457.423V457.423ZM443.973 519.528L349.632 465.061L457.202 402.956L551.541 457.423L443.973 519.528V519.528ZM554.548 592.035L452.254 651.093L341.681 587.254L443.973 528.194L554.548 592.035V592.035ZM451.479 523.862L559.047 461.757L669.62 525.598L562.052 587.701L451.479 523.862ZM665.888 391.45L665.866 391.415L665.844 391.428L563.999 332.625L224.82 528.451L566.081 725.48L905.26 529.655L665.888 391.45" fill="#F0EFFB"/>
<path d="M93.8789 290.204V296.984C94.0921 298.861 95.5009 300.822 98.1869 302.356C101.855 304.489 106.845 305.299 111.067 304.66C112.856 304.405 114.52 303.893 115.885 303.082L192.393 258.9C194.397 257.792 195.336 256.258 195.421 254.678L195.463 248.068L190.601 248.453C185.399 245.681 177.851 245.424 173.457 247.983L108.634 285.386L97.9318 291.569L97.7186 290.204H93.8789" fill="#C7784C"/>
<path d="M93.8789 290.204V296.984C94.0921 298.861 95.5009 300.822 98.1869 302.356C101.855 304.489 106.845 305.299 111.067 304.66V285.386H108.634L97.9318 291.569L97.7186 290.204H93.8789" fill="#DFCFB5"/>
<path d="M115.884 296.699L192.409 252.518C196.945 249.899 196.375 245.326 191.138 242.304V242.302C185.902 239.279 177.981 238.952 173.446 241.57L96.9205 285.752C92.3853 288.37 92.9552 292.943 98.1917 295.966C103.428 298.989 111.349 299.318 115.884 296.699" fill="white"/>
<path d="M460.505 280.019L460.481 279.977L460.455 279.989L342.071 211.639L14.9095 400.018L426.115 637.336L753.274 448.958L460.505 280.019Z" fill="#E8E6F9"/>
<path d="M236.166 295.506L93.3274 213.038L322.629 80.5608L465.468 163.03L236.166 295.506Z" fill="#A8A2F6"/>
<path d="M236.167 466.504V295.506L465.468 163.03V334.028L236.167 466.504Z" fill="#7065F0"/>
<path d="M299.71 421.897L249.662 450.793V337.16L299.71 308.265V421.897Z" fill="#F7F7FD"/>
<path d="M93.3274 384.036V213.038L236.166 295.506V466.504L93.3274 384.036Z" fill="#A8A2F6"/>
<path d="M112.681 253.745V363.688L131.804 374.705V264.76L112.681 253.745Z" fill="#F7F7FD"/>
<path d="M139.432 269.18V379.123L158.553 390.14V280.195L139.432 269.18" fill="#F7F7FD"/>
<path d="M166.183 284.614V394.559L185.306 405.574V295.631L166.183 284.614Z" fill="#F7F7FD"/>
<path d="M192.933 300.047V409.991L212.054 421.008V311.064L192.933 300.047Z" fill="#F7F7FD"/>
<path d="M509.707 365.878L311.225 252.028L465.459 163.021L663.941 276.873L509.707 365.878Z" fill="#7065F0"/>
<path d="M509.708 537.016V365.881L663.942 276.876V448.009L509.708 537.016Z" fill="#7065F0"/>
<path d="M311.225 423.164V252.03L509.707 365.881V537.016L311.225 423.164Z" fill="#A8A2F6"/>
<path d="M496.024 517.082L324.907 418.29V305.18L496.024 403.975V517.082" fill="#F7F7FD"/>
<path d="M274.444 294.769L266.633 285.911L302.183 265.372L311.225 270.559V274.394L274.444 294.769" fill="#5245ED"/>
<path d="M311.225 274.395V270.559L311.241 270.569L311.243 274.385L311.225 274.395" fill="#013BA1"/>
<path d="M87.3053 214.587L170.259 192.448L399.562 59.9702L316.609 82.1099L87.3053 214.587Z" fill="#5598E9"/>
<path d="M239.898 301.358L170.259 192.447L399.562 59.9693L469.199 168.88L239.898 301.358Z" fill="#3F461D"/>
<path d="M469.201 160.866V168.88L239.9 301.358V293.342L469.201 160.866Z" fill="#7065F0"/>
<path d="M190.729 251.572L164.668 214.631L115.154 225.64L93.3274 213.039L97.3684 211.903L170.259 192.45L205.333 247.302L190.729 251.572Z" fill="#5245ED"/>
<path d="M93.3334 230.49L93.3274 213.037L115.154 225.638L93.3334 230.49" fill="#5245ED"/>
<path d="M97.3684 211.903L169.941 191.517L170.259 192.017V192.449L97.3684 211.903" fill="#073CAE"/>
<path d="M87.3053 206.572L170.259 184.435L399.562 51.9571L316.609 74.0948L87.3053 206.572" fill="#CBC7FA"/>
<path d="M239.898 293.343L170.259 184.434L399.562 51.9567L469.199 160.868L239.898 293.343" fill="#A8A2F6"/>
<path d="M286.565 233.841L247.263 219.795L247.267 193.989L279.953 206.056L294.758 222.78L286.565 233.841" fill="#5245ED"/>
<path d="M247.262 191.992L233.053 183.789L247.175 175.635L261.384 183.84L247.262 191.992" fill="#A8A2F6"/>
<path d="M247.266 191.916L232.002 183.101L247.17 174.343L262.435 183.157L247.266 191.916" fill="#CBC7FA"/>
<path d="M247.267 194.565L262.437 185.806V183.156L247.267 191.915V194.565Z" fill="#2516DF"/>
<path d="M232.002 185.752L247.266 194.565V191.915L232.002 183.1V185.752Z" fill="#A8A2F6"/>
<path d="M257.234 183.822L247.245 189.603L247.213 189.569L237.222 183.79L247.179 178.044L247.213 178.078L257.234 183.822" fill="#2516DF"/>
<path d="M257.233 183.822L247.244 189.603L247.212 189.569V178.078L257.233 183.822" fill="#A8A2F6"/>
<path d="M247.263 219.793L261.384 211.642V183.839L247.263 191.991V219.793Z" fill="#2516DF"/>
<path d="M233.056 197.72L247.263 219.793V191.991L233.056 183.787V197.72Z" fill="#A8A2F6"/>
<path d="M247.27 177.326L245.263 176.167L247.256 175.017L249.263 176.175L247.27 177.326Z" fill="#A8A2F6"/>
<path d="M247.271 191.24L249.263 190.091V176.174L247.271 177.326V191.24Z" fill="#2516DF"/>
<path d="M245.263 190.083L247.27 191.24V177.326L245.263 176.166V190.083Z" fill="#A8A2F6"/>
<path d="M247.272 177.326L245.919 176.545L247.248 175.782L248.613 176.551L247.272 177.326Z" fill="#096EA8"/>
<path d="M247.285 181.596L247.271 181.588V177.328L248.612 176.552L249.257 176.915V180.462L247.285 181.596" fill="#093B7D"/>
<path d="M247.27 181.587L245.272 180.423V176.914L245.918 176.546L247.27 177.327V181.587Z" fill="#096EA8"/>
<path d="M259.398 170.316L257.392 169.159L259.384 168.007L261.393 169.165L259.398 170.316Z" fill="#A8A2F6"/>
<path d="M259.397 184.23L261.391 183.081V169.164L259.397 170.316V184.23Z" fill="#2516DF"/>
<path d="M257.392 183.073L259.398 184.23V170.316L257.392 169.159V183.073Z" fill="#A8A2F6"/>
<path d="M259.398 170.316L258.035 169.531L258.908 169.019L260.263 169.816L259.398 170.316" fill="#096EA8"/>
<path d="M259.397 174.596V170.318L260.262 169.818L261.391 170.481V173.444L259.397 174.596Z" fill="#093B7D"/>
<path d="M259.39 174.599L257.409 173.678V169.898L258.035 169.531L259.398 170.317V174.595L259.39 174.599Z" fill="#096EA8"/>
<path d="M235.062 170.281L233.053 169.124L235.048 167.972L237.054 169.132L235.062 170.281Z" fill="#A8A2F6"/>
<path d="M235.062 184.198L237.054 183.046V169.132L235.062 170.282V184.198Z" fill="#2516DF"/>
<path d="M233.053 183.038L235.062 184.198V170.282L233.053 169.124V183.038Z" fill="#A8A2F6"/>
<path d="M235.062 170.281L234.169 169.767L235.514 168.982L236.399 169.51L235.062 170.281Z" fill="#096EA8"/>
<path d="M235.062 174.555V170.281L236.399 169.51L237.048 169.899V173.445L235.062 174.555" fill="#093B7D"/>
<path d="M235.056 174.557L233.065 173.405V170.408L234.169 169.766L235.062 170.281V174.555L235.056 174.557Z" fill="#096EA8"/>
<path d="M247.273 177.306L230.483 167.612L247.167 157.98L263.957 167.671L247.273 177.306" fill="white"/>
<path d="M247.273 180.223L263.957 170.588V167.673L247.273 177.308V180.223Z" fill="#A8A2F6"/>
<path d="M230.483 170.529L247.273 180.223V177.308L230.483 167.614V170.529Z" fill="#CBC7FA"/>
<path d="M500.553 379.162L302.071 265.309L364.159 207.524L562.641 321.376L500.553 379.162Z" fill="#5598E9"/>
<path d="M474.933 167.064L402.072 140.684L600.556 254.537L673.415 280.917L474.933 167.064" fill="#DDB79B"/>
<path d="M600.557 254.537L562.64 321.376L364.158 207.524L402.073 140.684L600.557 254.537" fill="#433E44"/>
<path d="M509.714 388.207L509.708 370.644V388.041L509.714 388.035V388.207Z" fill="#02288E"/>
<path d="M509.713 388.207L311.242 274.386V270.572L500.553 379.162L509.707 370.644V388.203" fill="#5245ED"/>
<path d="M311.242 256.772V252.124L311.561 251.94L314.578 253.67L311.242 256.772Z" fill="#02288E"/>
<path d="M311.242 252.123V251.757L311.561 251.94L311.242 252.123Z" fill="#0852BE"/>
<path d="M500.553 379.162L311.242 270.571V256.773L314.578 253.67L509.713 365.578L509.707 370.643L500.553 379.162" fill="#073CAE"/>
<path d="M523.178 358.108L562.641 321.376L600.558 254.537L597.179 252.598L600.558 254.537L663.291 277.25L644.634 288.016L600.558 272.078L565.664 333.587L523.178 358.108" fill="#5245ED"/>
<path d="M509.713 388.035V370.638L523.177 358.109L565.663 333.588L562.64 338.918L509.713 388.035ZM663.936 294.997L644.633 288.017L663.29 277.251L663.936 277.484V294.997" fill="#5245ED"/>
<path d="M509.714 370.637V365.578L509.708 354.493L551.982 315.261L562.641 321.376L523.178 358.108L509.714 370.637" fill="#033093"/>
<path d="M663.935 275.478L600.302 238.976L600.557 238.529L663.935 269.57V275.478" fill="url(#paint0_linear_2_1312)"/>
<path d="M663.935 277.486L663.29 277.253L600.557 254.539L597.177 252.6L600.557 246.644L597.084 244.652L600.302 238.979L663.935 275.481V277.486" fill="#073962"/>
<path d="M562.641 321.376L551.982 315.261L557.239 310.381L562.641 313.48L597.179 252.598L600.558 254.537L562.641 321.376" fill="#02132B"/>
<path d="M509.708 388.042V370.645L509.714 370.639V388.036L509.708 388.042Z" fill="#000D5A"/>
<path d="M509.708 370.646V365.577L509.714 365.581V370.64L509.708 370.646Z" fill="#00136E"/>
<path d="M500.553 371.268L302.071 257.414L364.159 199.63L562.641 313.483L500.553 371.268" fill="#A8A2F6"/>
<path d="M474.933 159.166L402.072 132.788L600.556 246.641L673.415 273.019L474.933 159.166" fill="#A8A2F6"/>
<path d="M600.557 246.643L562.64 313.48L364.158 199.63L402.073 132.79L600.557 246.643" fill="#CBC7FA"/>
<path d="M170.259 184.433V192.448L87.3053 214.587V206.571L170.259 184.433Z" fill="#A8A2F6"/>
<path d="M170.259 184.433V192.447L239.898 301.358V293.342L170.259 184.433" fill="#A8A2F6"/>
<path d="M673.416 280.917V273.02L600.557 246.642L562.64 313.482L500.553 371.267V379.162L562.64 321.376L600.557 254.537L673.416 280.917" fill="#2516DF"/>
<path d="M500.553 379.162V371.267L302.071 257.412V265.309L500.553 379.162" fill="#A8A2F6"/>
<path d="M419.669 222.013V181.173L408.464 174.699L406.133 152.779H419.669L461.308 175.962L460.601 181.964L449.914 199.345L419.669 222.013" fill="#5245ED"/>
<path d="M433.326 174.934V198.094L419.669 222.013V181.173L433.326 174.934Z" fill="#2516DF"/>
<path d="M419.668 222.013L392.595 206.369V165.531L419.668 181.173V222.013Z" fill="#A8A2F6"/>
<path d="M415.879 180.25L385.44 162.661L406.637 150.805L437.078 168.394L415.879 180.25Z" fill="#CBC7FA"/>
<path d="M415.879 178.896L385.44 161.306L406.637 149.45L437.078 167.039L415.879 178.896Z" fill="white"/>
<path d="M417.915 183.528L433.328 174.934L437.078 168.396L415.878 180.252L417.915 183.528Z" fill="#2516DF"/>
<path d="M385.44 162.663L387.476 165.937L417.915 183.528L415.879 180.252L385.44 162.663Z" fill="#A8A2F6"/>
<path d="M415.878 180.25V178.895L437.078 167.037V168.394L415.878 180.25" fill="#A8A2F6"/>
<path d="M415.878 180.25V178.895L385.44 161.304V162.661L415.878 180.25" fill="#CBC7FA"/>
<path d="M395.002 205.689V173.286L417.267 186.132V218.536L395.002 205.689Z" fill="#A8A2F6"/>
<path d="M397.61 177.814V204.184L414.657 214.006V187.636L397.61 177.814Z" fill="white"/>
<path d="M400.547 179.51V202.935L414.657 211.059V214.006L397.61 204.186V177.814L400.547 179.51" fill="#2516DF"/>
<path d="M400.547 202.935L397.61 204.186L414.657 214.006V211.059L400.547 202.935" fill="#CBC7FA"/>
<path d="M402.719 204.188H397.61L400.547 202.936V179.512L402.777 180.793L402.719 204.188" fill="#0C59BE"/>
<path d="M476.856 254.755L467.148 221.527L463.32 185.521H476.856L518.495 208.705L517.788 214.706L507.099 232.088L476.856 254.755" fill="#5245ED"/>
<path d="M490.512 207.674V230.836L476.857 254.755V213.917L490.512 207.674Z" fill="#2516DF"/>
<path d="M476.857 254.755L449.781 239.112V198.273L476.857 213.917V254.755Z" fill="#A8A2F6"/>
<path d="M473.066 212.997L442.625 195.408L463.824 183.553L494.263 201.143L473.066 212.997Z" fill="#CBC7FA"/>
<path d="M473.066 211.637L442.625 194.049L463.824 182.193L494.263 199.782L473.066 211.637Z" fill="white"/>
<path d="M475.1 216.272L490.513 207.676L494.263 201.142L473.065 212.996L475.1 216.272Z" fill="#2516DF"/>
<path d="M442.625 195.407L444.659 198.681L475.1 216.272L473.066 212.996L442.625 195.407Z" fill="#A8A2F6"/>
<path d="M473.065 212.997V211.64L494.263 199.784V201.143L473.065 212.997Z" fill="#A8A2F6"/>
<path d="M473.066 212.997V211.64L442.625 194.052V195.408L473.066 212.997Z" fill="#CBC7FA"/>
<path d="M452.185 238.434V206.031L474.452 218.877V251.281L452.185 238.434Z" fill="#A8A2F6"/>
<path d="M454.795 210.56V236.93L471.842 246.752V220.382L454.795 210.56Z" fill="white"/>
<path d="M457.733 212.256V235.683L471.842 243.805V246.752L454.795 236.932V210.56L457.733 212.256" fill="#2516DF"/>
<path d="M457.733 235.683L454.795 236.932L471.842 246.752V243.805L457.733 235.683" fill="#CBC7FA"/>
<path d="M454.795 236.93H459.906L459.964 213.535L457.732 212.254V235.681L454.795 236.93" fill="#2516DF"/>
<path d="M534.042 287.5L524.335 254.272L520.505 218.266H534.042L575.68 241.45L574.972 247.451L564.282 264.833L534.042 287.5" fill="#5245ED"/>
<path d="M547.697 240.422V263.583L534.042 287.5V246.662L547.697 240.422Z" fill="#2516DF"/>
<path d="M534.044 287.5L506.968 271.857V231.019L534.044 246.662V287.5Z" fill="#A8A2F6"/>
<path d="M530.249 245.74L499.81 228.152L521.009 216.296L551.448 233.887L530.249 245.74Z" fill="#CBC7FA"/>
<path d="M530.249 244.384L499.81 226.795L521.009 214.94L551.448 232.53L530.249 244.384Z" fill="white"/>
<path d="M532.284 249.016L547.697 240.422L551.447 233.887L530.248 245.741L532.284 249.016" fill="#2516DF"/>
<path d="M499.81 228.152L501.846 231.426L532.285 249.016L530.249 245.741L499.81 228.152" fill="#A8A2F6"/>
<path d="M530.248 245.74V244.384L551.447 232.53V233.887L530.248 245.74Z" fill="#A8A2F6"/>
<path d="M530.249 245.74V244.384L499.81 226.795V228.152L530.249 245.74" fill="#CBC7FA"/>
<path d="M509.37 271.179V238.773L531.638 251.62V284.023L509.37 271.179" fill="#A8A2F6"/>
<path d="M511.98 243.306V269.674L529.027 279.496V253.126L511.98 243.306" fill="white"/>
<path d="M514.918 245V268.427L529.025 276.549V279.496L511.98 269.676V243.304L514.918 245" fill="#2516DF"/>
<path d="M514.918 268.427L511.98 269.676L529.025 279.496V276.549L514.918 268.427Z" fill="#CBC7FA"/>
<path d="M511.98 269.675H517.092L517.147 246.28L514.918 244.999V268.426L511.98 269.675" fill="#2516DF"/>
</g>
<defs>
<linearGradient id="paint0_linear_2_1312" x1="384.091" y1="145.605" x2="384.091" y2="344.89" gradientUnits="userSpaceOnUse">
<stop stop-color="#0850A1"/>
<stop offset="1" stop-color="#074CA1"/>
</linearGradient>
<clipPath id="clip0_2_1312">
<rect width="909" height="619" fill="white"/>
</clipPath>
</defs>
</svg>
