<svg width="20" height="20" viewBox="0 0 20 20" fill="none" xmlns="http://www.w3.org/2000/svg">
<g id="Icon" clip-path="url(#clip0_2_1421)">
<path id="Vector" d="M17.2604 6.56848L11.7052 2.25163C11.2177 1.87272 10.6176 1.66699 9.99996 1.66699C9.3823 1.66699 8.78226 1.87272 8.29475 2.25163L2.7385 6.56848C2.40459 6.82791 2.13443 7.16015 1.94866 7.53982C1.76289 7.91949 1.66643 8.33656 1.66663 8.75916V16.2522C1.66663 16.8043 1.88612 17.3337 2.27682 17.724C2.66752 18.1144 3.19743 18.3337 3.74996 18.3337H16.25C16.8025 18.3337 17.3324 18.1144 17.7231 17.724C18.1138 17.3337 18.3333 16.8043 18.3333 16.2522V8.75916C18.3333 7.90266 17.9375 7.09403 17.2604 6.56848Z" stroke="#000929" stroke-width="2" stroke-linecap="round" stroke-linejoin="round"/>
</g>
<defs>
<clipPath id="clip0_2_1421">
<rect width="20" height="20" fill="white"/>
</clipPath>
</defs>
</svg>
