<svg width="101" height="15" viewBox="0 0 101 15" fill="none" xmlns="http://www.w3.org/2000/svg">
<path d="M6.066 14.216C5.226 14.216 4.434 14.066 3.69 13.766C2.958 13.454 2.322 13.016 1.782 12.452C1.254 11.888 0.858 11.222 0.594 10.454L2.88 9.428C3.216 10.16 3.678 10.736 4.266 11.156C4.866 11.576 5.526 11.786 6.246 11.786C6.63 11.786 6.96 11.726 7.236 11.606C7.512 11.486 7.728 11.324 7.884 11.12C8.04 10.904 8.118 10.652 8.118 10.364C8.118 10.052 8.022 9.788 7.83 9.572C7.638 9.344 7.338 9.164 6.93 9.032L4.302 8.168C3.234 7.82 2.43 7.328 1.89 6.692C1.35 6.044 1.08 5.27 1.08 4.37C1.08 3.578 1.272 2.882 1.656 2.282C2.052 1.682 2.598 1.214 3.294 0.877999C4.002 0.541999 4.812 0.373999 5.724 0.373999C6.528 0.373999 7.272 0.511999 7.956 0.788C8.64 1.064 9.228 1.454 9.72 1.958C10.224 2.462 10.602 3.068 10.854 3.776L8.586 4.802C8.334 4.178 7.956 3.692 7.452 3.344C6.948 2.984 6.372 2.804 5.724 2.804C5.352 2.804 5.022 2.864 4.734 2.984C4.446 3.104 4.224 3.278 4.068 3.506C3.912 3.722 3.834 3.974 3.834 4.262C3.834 4.574 3.936 4.85 4.14 5.09C4.344 5.318 4.65 5.498 5.058 5.63L7.632 6.458C8.712 6.806 9.516 7.292 10.044 7.916C10.584 8.54 10.854 9.302 10.854 10.202C10.854 10.982 10.65 11.678 10.242 12.29C9.834 12.89 9.27 13.364 8.55 13.712C7.842 14.048 7.014 14.216 6.066 14.216ZM21.9863 14.216C21.0263 14.216 20.1323 14.042 19.3043 13.694C18.4763 13.346 17.7503 12.86 17.1263 12.236C16.5023 11.612 16.0163 10.88 15.6683 10.04C15.3203 9.2 15.1463 8.282 15.1463 7.286C15.1463 6.29 15.3143 5.372 15.6503 4.532C15.9863 3.68 16.4603 2.948 17.0723 2.336C17.6843 1.712 18.3983 1.232 19.2143 0.895999C20.0423 0.547999 20.9423 0.373999 21.9143 0.373999C22.8863 0.373999 23.7563 0.536 24.5243 0.86C25.3043 1.184 25.9643 1.616 26.5043 2.156C27.0443 2.696 27.4283 3.296 27.6563 3.956L25.1903 5.144C24.9623 4.496 24.5603 3.962 23.9843 3.542C23.4203 3.11 22.7303 2.894 21.9143 2.894C21.1223 2.894 20.4263 3.08 19.8263 3.452C19.2263 3.824 18.7583 4.34 18.4223 5C18.0983 5.648 17.9363 6.41 17.9363 7.286C17.9363 8.162 18.1103 8.93 18.4583 9.59C18.8063 10.25 19.2803 10.766 19.8803 11.138C20.4923 11.51 21.1943 11.696 21.9863 11.696C22.5983 11.696 23.1683 11.582 23.6963 11.354C24.2363 11.114 24.6683 10.772 24.9923 10.328C25.3283 9.884 25.4963 9.35 25.4963 8.726V7.61L26.7743 8.69H21.9143V6.35H28.2863V7.772C28.2863 8.864 28.1063 9.818 27.7463 10.634C27.3863 11.438 26.9003 12.11 26.2883 12.65C25.6883 13.178 25.0103 13.574 24.2543 13.838C23.5103 14.09 22.7543 14.216 21.9863 14.216ZM32.7091 14V0.589999H35.4991V14H32.7091ZM40.5771 14V0.589999H42.7191L49.9191 10.076L48.7671 10.346V0.589999H51.5571V14H49.3971L42.3231 4.442L43.3671 4.172V14H40.5771ZM61.5144 14.216C60.6744 14.216 59.8824 14.066 59.1384 13.766C58.4064 13.454 57.7704 13.016 57.2304 12.452C56.7024 11.888 56.3064 11.222 56.0424 10.454L58.3284 9.428C58.6644 10.16 59.1264 10.736 59.7144 11.156C60.3144 11.576 60.9744 11.786 61.6944 11.786C62.0784 11.786 62.4084 11.726 62.6844 11.606C62.9604 11.486 63.1764 11.324 63.3324 11.12C63.4884 10.904 63.5664 10.652 63.5664 10.364C63.5664 10.052 63.4704 9.788 63.2784 9.572C63.0864 9.344 62.7864 9.164 62.3784 9.032L59.7504 8.168C58.6824 7.82 57.8784 7.328 57.3384 6.692C56.7984 6.044 56.5284 5.27 56.5284 4.37C56.5284 3.578 56.7204 2.882 57.1044 2.282C57.5004 1.682 58.0464 1.214 58.7424 0.877999C59.4504 0.541999 60.2604 0.373999 61.1724 0.373999C61.9764 0.373999 62.7204 0.511999 63.4044 0.788C64.0884 1.064 64.6764 1.454 65.1684 1.958C65.6724 2.462 66.0504 3.068 66.3024 3.776L64.0344 4.802C63.7824 4.178 63.4044 3.692 62.9004 3.344C62.3964 2.984 61.8204 2.804 61.1724 2.804C60.8004 2.804 60.4704 2.864 60.1824 2.984C59.8944 3.104 59.6724 3.278 59.5164 3.506C59.3604 3.722 59.2824 3.974 59.2824 4.262C59.2824 4.574 59.3844 4.85 59.5884 5.09C59.7924 5.318 60.0984 5.498 60.5064 5.63L63.0804 6.458C64.1604 6.806 64.9644 7.292 65.4924 7.916C66.0324 8.54 66.3024 9.302 66.3024 10.202C66.3024 10.982 66.0984 11.678 65.6904 12.29C65.2824 12.89 64.7184 13.364 63.9984 13.712C63.2904 14.048 62.4624 14.216 61.5144 14.216ZM70.9907 14V0.589999H73.7807V14H70.9907ZM81.2707 14V3.02H77.8687V0.589999H87.4087V3.02H84.0607V14H81.2707ZM91.4903 14V0.589999H100.508V3.02H94.2803V6.062H100.148V8.492H94.2803V11.57H100.508V14H91.4903Z" fill="#450AA7"/>
</svg>
