<svg width="35" height="35" viewBox="0 0 35 35" fill="none" xmlns="http://www.w3.org/2000/svg">
<circle cx="17.5" cy="17.5" r="17.5" fill="white"/>
<circle cx="17.5" cy="17.5" r="17" stroke="#6270A0" stroke-opacity="0.1"/>
<path d="M14.5 19H11.5C11.2239 19 11 19.2239 11 19.5V24.5C11 24.7761 11.2239 25 11.5 25H14.5C14.7761 25 15 24.7761 15 24.5V19.5C15 19.2239 14.7761 19 14.5 19Z" fill="#FF0000"/>
<path d="M24.5 15H21.5C21.2239 15 21 15.2239 21 15.5V24.5C21 24.7761 21.2239 25 21.5 25H24.5C24.7761 25 25 24.7761 25 24.5V15.5C25 15.2239 24.7761 15 24.5 15Z" fill="#FF0000"/>
<path d="M19.5 11H16.5C16.2239 11 16 11.2239 16 11.5V24.5C16 24.7761 16.2239 25 16.5 25H19.5C19.7761 25 20 24.7761 20 24.5V11.5C20 11.2239 19.7761 11 19.5 11Z" fill="#FF0000"/>
</svg>
