<svg width="35" height="35" viewBox="0 0 35 35" fill="none" xmlns="http://www.w3.org/2000/svg">
<circle cx="17.5" cy="17.5" r="17.5" fill="white"/>
<circle cx="17.5" cy="17.5" r="17" stroke="#6270A0" stroke-opacity="0.1"/>
<g clip-path="url(#clip0_24_1094)">
<path d="M24.9361 17.2073C24.8717 17.0756 24.8717 16.9245 24.9361 16.7928L25.5329 15.5721C25.8651 14.8923 25.6019 14.0822 24.9336 13.7276L23.7332 13.0907C23.6037 13.022 23.515 12.8998 23.4896 12.7554L23.2549 11.417C23.1242 10.6719 22.4348 10.1711 21.6859 10.2771L20.3405 10.4674C20.1953 10.4879 20.0517 10.4412 19.9463 10.3393L18.9697 9.39456C18.426 8.8685 17.5741 8.86847 17.0303 9.39456L16.0537 10.3394C15.9484 10.4413 15.8048 10.4879 15.6596 10.4675L14.3142 10.2772C13.565 10.1711 12.8759 10.672 12.7452 11.4171L12.5104 12.7555C12.4851 12.8998 12.3963 13.0221 12.2668 13.0908L11.0665 13.7277C10.3982 14.0822 10.135 14.8924 10.4672 15.5721L11.0639 16.7929C11.1283 16.9246 11.1283 17.0757 11.0639 17.2074L10.4672 18.4281C10.135 19.1078 10.3982 19.918 11.0665 20.2726L12.2668 20.9094C12.3963 20.9781 12.4851 21.1004 12.5104 21.2447L12.7452 22.5831C12.8642 23.2615 13.4459 23.7372 14.1144 23.7372C14.1802 23.7372 14.2471 23.7325 14.3142 23.723L15.6596 23.5327C15.8047 23.5121 15.9484 23.5589 16.0538 23.6608L17.0303 24.6056C17.3023 24.8686 17.6511 25.0001 18 25.0001C18.3489 25.0001 18.6979 24.8686 18.9697 24.6056L19.9463 23.6608C20.0517 23.5589 20.1953 23.5123 20.3405 23.5327L21.6859 23.723C22.4352 23.829 23.1242 23.3283 23.2549 22.5831L23.4897 21.2447C23.515 21.1004 23.6038 20.9781 23.7332 20.9094L24.9336 20.2726C25.6019 19.918 25.8651 19.1078 25.5329 18.4281L24.9361 17.2073ZM16.1544 12.8474C17.0873 12.8474 17.8462 13.6064 17.8462 14.5392C17.8462 15.4721 17.0873 16.2311 16.1544 16.2311C15.2215 16.2311 14.4626 15.4721 14.4626 14.5392C14.4626 13.6064 15.2215 12.8474 16.1544 12.8474ZM15.2811 20.3714C15.191 20.4615 15.073 20.5066 14.9549 20.5066C14.8368 20.5066 14.7187 20.4616 14.6286 20.3714C14.4485 20.1912 14.4485 19.8991 14.6286 19.7189L20.7189 13.6287C20.899 13.4485 21.1912 13.4485 21.3714 13.6287C21.5516 13.8088 21.5516 14.101 21.3714 14.2812L15.2811 20.3714ZM19.8456 21.1527C18.9127 21.1527 18.1538 20.3938 18.1538 19.4609C18.1538 18.528 18.9127 17.7691 19.8456 17.7691C20.7785 17.7691 21.5374 18.528 21.5374 19.4609C21.5374 20.3938 20.7785 21.1527 19.8456 21.1527Z" fill="#978ABB"/>
<path d="M19.8456 18.6919C19.4215 18.6919 19.0765 19.0369 19.0765 19.4609C19.0765 19.8849 19.4215 20.2299 19.8456 20.2299C20.2696 20.2299 20.6146 19.8849 20.6146 19.4609C20.6146 19.0369 20.2696 18.6919 19.8456 18.6919Z" fill="#978ABB"/>
<path d="M16.1544 13.7703C15.7303 13.7703 15.3854 14.1152 15.3854 14.5393C15.3854 14.9633 15.7303 15.3083 16.1544 15.3083C16.5784 15.3083 16.9234 14.9633 16.9234 14.5393C16.9234 14.1153 16.5784 13.7703 16.1544 13.7703Z" fill="#978ABB"/>
</g>
<defs>
<clipPath id="clip0_24_1094">
<rect width="16" height="16" fill="white" transform="translate(10 9)"/>
</clipPath>
</defs>
</svg>
