<svg width="35" height="35" viewBox="0 0 35 35" fill="none" xmlns="http://www.w3.org/2000/svg">
<circle cx="17.5" cy="17.5" r="17.5" fill="white"/>
<circle cx="17.5" cy="17.5" r="17" stroke="#6270A0" stroke-opacity="0.1"/>
<g clip-path="url(#clip0_24_890)">
<path d="M22.0485 18.741C21.9712 18.4793 21.8775 18.2516 21.7673 18.0582C21.6573 17.8646 21.4997 17.6757 21.2942 17.491C21.0889 17.3064 20.9043 17.1578 20.7406 17.0447C20.5769 16.9316 20.3522 16.8052 20.0664 16.6652C19.7809 16.5252 19.5546 16.4211 19.3881 16.3526C19.2214 16.2842 18.9801 16.1904 18.6646 16.0714C18.3849 15.9643 18.1766 15.8824 18.0396 15.8259C17.9027 15.7693 17.7227 15.689 17.4994 15.5848C17.2763 15.4807 17.1096 15.3884 16.9995 15.3081C16.8893 15.2278 16.7718 15.1296 16.6468 15.0135C16.5218 14.8975 16.434 14.7739 16.3833 14.643C16.3328 14.512 16.3075 14.3691 16.3075 14.2143C16.3075 13.8097 16.486 13.4792 16.8432 13.2233C17.2003 12.9674 17.6617 12.8394 18.2272 12.8394C18.4771 12.8394 18.7319 12.8736 18.9906 12.9421C19.2494 13.0107 19.4711 13.0878 19.6557 13.1742C19.8404 13.2606 20.0144 13.3559 20.1782 13.46C20.3419 13.5642 20.4579 13.643 20.5264 13.6965C20.5949 13.7502 20.6383 13.7858 20.6559 13.8037C20.7334 13.8632 20.8136 13.884 20.8969 13.8662C20.9862 13.8603 21.0547 13.8126 21.1024 13.7234L21.8258 12.4198C21.8972 12.3008 21.8824 12.1877 21.7812 12.0805C21.7454 12.0448 21.7009 12.0031 21.647 11.9555C21.5936 11.9078 21.4774 11.8215 21.2987 11.6965C21.1202 11.5715 20.9312 11.4599 20.7319 11.3617C20.5324 11.2635 20.2734 11.1638 19.9549 11.0626C19.6366 10.9613 19.3076 10.8929 18.9683 10.8572V9.28572C18.9683 9.20243 18.9415 9.13395 18.8881 9.08034C18.8346 9.02686 18.7661 9 18.6826 9H17.4771C17.3998 9 17.3328 9.02824 17.2763 9.08481C17.2197 9.14139 17.1915 9.20831 17.1915 9.28572V10.8929C16.2569 11.0714 15.4979 11.4702 14.9146 12.0893C14.3313 12.7084 14.0395 13.4285 14.0395 14.2501C14.0395 14.4941 14.0649 14.7262 14.1155 14.9464C14.1661 15.1667 14.2286 15.3646 14.303 15.5402C14.3774 15.7159 14.4831 15.8885 14.62 16.0581C14.7569 16.2278 14.8864 16.3736 15.0084 16.4956C15.1305 16.6175 15.2897 16.7441 15.4861 16.875C15.6826 17.006 15.8507 17.1118 15.9906 17.1921C16.1306 17.2721 16.3166 17.3647 16.5487 17.4686C16.7808 17.5729 16.9639 17.6516 17.0978 17.7053C17.2318 17.7588 17.4148 17.8333 17.647 17.9284C17.9684 18.0534 18.2066 18.1501 18.3613 18.2186C18.5162 18.2871 18.7126 18.3823 18.9508 18.5044C19.1888 18.6263 19.3629 18.7379 19.4731 18.8392C19.5832 18.9404 19.6829 19.0654 19.7722 19.2142C19.8616 19.3629 19.9063 19.5207 19.9063 19.6874C19.9063 20.1577 19.7233 20.5207 19.3571 20.7765C18.9911 21.0325 18.5668 21.1605 18.0847 21.1605C17.8647 21.1605 17.6443 21.1368 17.4241 21.0892C16.6503 20.9342 15.9271 20.5622 15.2544 19.973L15.2366 19.9551C15.183 19.8898 15.1115 19.863 15.0223 19.8749C14.9271 19.8868 14.8586 19.9226 14.8169 19.9822L13.8972 21.1875C13.8079 21.3065 13.814 21.4285 13.9151 21.5535C13.9449 21.5893 13.997 21.643 14.0714 21.7143C14.1459 21.7859 14.2843 21.8973 14.4866 22.0494C14.689 22.2012 14.9092 22.3439 15.1474 22.478C15.3855 22.6119 15.6875 22.7443 16.0537 22.8753C16.4198 23.0061 16.7992 23.0983 17.1921 23.1518V24.7143C17.1921 24.7918 17.2204 24.8587 17.2769 24.9153C17.3335 24.972 17.4004 25.0001 17.4778 25.0001H18.6833C18.7667 25.0001 18.8352 24.9734 18.8887 24.9199C18.9422 24.8664 18.9689 24.7979 18.9689 24.7144V23.1519C19.9155 22.9971 20.6849 22.5908 21.2771 21.9331C21.8693 21.2753 22.1656 20.491 22.1656 19.5804C22.1652 19.2828 22.1266 19.003 22.0485 18.741Z" fill="#E8A0AD"/>
</g>
<defs>
<clipPath id="clip0_24_890">
<rect width="16" height="16" fill="white" transform="translate(10 9)"/>
</clipPath>
</defs>
</svg>
