<svg width="35" height="35" viewBox="0 0 35 35" fill="none" xmlns="http://www.w3.org/2000/svg">
<circle cx="17.5" cy="17.5" r="17.5" fill="white"/>
<circle cx="17.5" cy="17.5" r="17" stroke="#6270A0" stroke-opacity="0.1"/>
<g clip-path="url(#clip0_24_1081)">
<path d="M17.0439 17.0656L11.9349 14.289C11.7076 14.1656 11.4393 14.1707 11.2169 14.3029C10.9945 14.435 10.8618 14.6684 10.8618 14.9271V21.3682C10.8618 21.6288 11.0025 21.8707 11.2291 21.9995L16.3382 24.904C16.4509 24.968 16.574 25 16.6972 25C16.8228 25 16.9483 24.9668 17.0624 24.9004C17.2884 24.7689 17.4234 24.5342 17.4234 24.2727V17.7037C17.4234 17.4373 17.278 17.1928 17.0439 17.0656Z" fill="#B499FF"/>
<path d="M24.2112 12.6136C24.2109 12.3416 24.0606 12.095 23.8192 11.9698L18.248 9.0815C18.037 8.97209 17.7856 8.97291 17.5755 9.08353L12.0861 11.9719C11.8471 12.0977 11.6985 12.3436 11.6981 12.6137C11.6978 12.8838 11.8459 13.13 12.0845 13.2564L17.5739 16.1628C17.6802 16.219 17.7969 16.2471 17.9136 16.2471C18.0289 16.2471 18.1443 16.2197 18.2495 16.1648L23.8209 13.2584C24.062 13.1327 24.2116 12.8856 24.2112 12.6136Z" fill="#B499FF"/>
<path d="M24.7833 14.3029C24.561 14.1707 24.2925 14.1655 24.0654 14.289L18.9562 17.0657C18.7221 17.1929 18.5768 17.4374 18.5768 17.7037V24.2727C18.5768 24.5342 18.7117 24.7689 18.9378 24.9004C19.0519 24.9668 19.1774 25 19.3029 25C19.4261 25 19.5493 24.968 19.6619 24.904L24.7711 21.9995C24.9977 21.8707 25.1383 21.6288 25.1383 21.3682V14.9271C25.1383 14.6684 25.0057 14.4351 24.7833 14.3029Z" fill="#B499FF"/>
</g>
<defs>
<clipPath id="clip0_24_1081">
<rect width="16" height="16" fill="white" transform="translate(10 9)"/>
</clipPath>
</defs>
</svg>
