<svg width="19" height="19" viewBox="0 0 19 19" fill="none" xmlns="http://www.w3.org/2000/svg">
<g clip-path="url(#clip0_24_1118)">
<mask id="mask0_24_1118" style="mask-type:luminance" maskUnits="userSpaceOnUse" x="0" y="0" width="19" height="19">
<path d="M0 0H19V19H0V0Z" fill="white"/>
</mask>
<g mask="url(#mask0_24_1118)">
<path fill-rule="evenodd" clip-rule="evenodd" d="M18.7681 4.19012C19.0773 4.49929 19.0773 5.00054 18.7681 5.30971L11.2473 12.8305C10.9381 13.1397 10.4369 13.1397 10.1277 12.8305L6.72916 9.43199L1.35146 14.8097C1.04229 15.1189 0.541038 15.1189 0.231874 14.8097C-0.0772912 14.5006 -0.0772912 13.9993 0.231874 13.6901L6.16937 7.75262C6.47854 7.44346 6.97979 7.44346 7.28896 7.75262L10.6875 11.1512L17.6485 4.19012C17.9577 3.88096 18.459 3.88096 18.7681 4.19012Z" fill="#FF0000"/>
<path fill-rule="evenodd" clip-rule="evenodd" d="M12.6666 4.74992C12.6666 4.3127 13.0211 3.95825 13.4583 3.95825H18.2083C18.6455 3.95825 19 4.3127 19 4.74992V9.49992C19 9.93716 18.6455 10.2916 18.2083 10.2916C17.7711 10.2916 17.4166 9.93716 17.4166 9.49992V5.54159H13.4583C13.0211 5.54159 12.6666 5.18714 12.6666 4.74992Z" fill="#FF0000"/>
</g>
</g>
<defs>
<clipPath id="clip0_24_1118">
<rect width="19" height="19" fill="white"/>
</clipPath>
</defs>
</svg>
