<svg width="19" height="19" viewBox="0 0 19 19" fill="none" xmlns="http://www.w3.org/2000/svg">
<g clip-path="url(#clip0_24_1012)">
<mask id="mask0_24_1012" style="mask-type:luminance" maskUnits="userSpaceOnUse" x="0" y="0" width="19" height="19">
<path d="M0 19H19V0H0V19Z" fill="white"/>
</mask>
<g mask="url(#mask0_24_1012)">
<path fill-rule="evenodd" clip-rule="evenodd" d="M18.7681 14.8098C19.0773 14.5006 19.0773 13.9993 18.7681 13.6902L11.2473 6.16934C10.9381 5.86019 10.4369 5.86019 10.1277 6.16934L6.72916 9.56788L1.35146 4.19017C1.04229 3.88103 0.541038 3.88103 0.231874 4.19017C-0.0772912 4.49932 -0.0772912 5.0006 0.231874 5.30975L6.16937 11.2473C6.47854 11.5564 6.97979 11.5564 7.28896 11.2473L10.6875 7.8487L17.6485 14.8098C17.9577 15.1189 18.459 15.1189 18.7681 14.8098Z" fill="#FF0000"/>
<path fill-rule="evenodd" clip-rule="evenodd" d="M12.6666 14.25C12.6666 14.6872 13.0211 15.0416 13.4583 15.0416H18.2083C18.6455 15.0416 19 14.6872 19 14.25V9.49996C19 9.06272 18.6455 8.70829 18.2083 8.70829C17.7711 8.70829 17.4166 9.06272 17.4166 9.49996V13.4583H13.4583C13.0211 13.4583 12.6666 13.8127 12.6666 14.25Z" fill="#FF0000"/>
</g>
</g>
<defs>
<clipPath id="clip0_24_1012">
<rect width="19" height="19" fill="white" transform="matrix(1 0 0 -1 0 19)"/>
</clipPath>
</defs>
</svg>
