<svg width="50" height="50" viewBox="0 0 50 50" fill="none" xmlns="http://www.w3.org/2000/svg">
<circle cx="25" cy="25" r="24.5" fill="white" stroke="#E0DEF7"/>
<circle cx="25" cy="25" r="21.875" fill="#E0DEF7"/>
<path d="M31.25 40.2812C31.25 39.0222 31.8428 37.8367 32.85 37.0813L38.225 33.05C39.6472 31.9833 41.6028 31.9833 43.025 33.05L48.4 37.0812C49.4072 37.8367 50 39.0222 50 40.2812V50H31.25V40.2812Z" fill="#450AA7"/>
<path d="M39.5834 43.229C39.3698 43.229 39.1927 43.4061 39.1927 43.6196V44.4009C39.1927 44.6144 39.3698 44.7915 39.5834 44.7915C39.7969 44.7915 39.974 44.6144 39.974 44.4009V43.6196C39.974 43.4061 39.7969 43.229 39.5834 43.229Z" fill="white"/>
<path d="M45.8333 46.2238H45.3125V40.354C45.3125 40.0311 45.1666 39.729 44.9114 39.5311L41.2656 36.6978C40.8906 36.4009 40.3593 36.4009 39.9843 36.6978L36.3385 39.5311C36.0833 39.729 35.9375 40.0311 35.9375 40.3488L35.9114 46.2238H35.4166C35.2031 46.2238 35.026 46.3957 35.026 46.6144C35.026 46.828 35.2031 47.005 35.4166 47.005H45.8333C46.0468 47.005 46.2239 46.828 46.2239 46.6144C46.2239 46.3957 46.0468 46.2238 45.8333 46.2238ZM39.8437 38.6717H41.4062C41.6198 38.6717 41.7968 38.8488 41.7968 39.0623C41.7968 39.2759 41.6198 39.453 41.4062 39.453H39.8437C39.6302 39.453 39.4531 39.2759 39.4531 39.0623C39.4531 38.8488 39.6302 38.6717 39.8437 38.6717ZM43.2291 46.2238H38.0208V41.6665C38.0208 41.2342 38.3698 40.8853 38.802 40.8853H42.4479C42.8802 40.8853 43.2291 41.2342 43.2291 41.6665V46.2238Z" fill="white"/>
<g clip-path="url(#clip0_309_1331)">
<g filter="url(#filter0_d_309_1331)">
<path d="M16.6667 20.8332V18.7498C16.6667 18.1973 16.8862 17.6674 17.2769 17.2767C17.6676 16.886 18.1975 16.6665 18.7501 16.6665H20.8334" stroke="white" stroke-width="2" stroke-linecap="round" stroke-linejoin="round" shape-rendering="crispEdges"/>
</g>
<g filter="url(#filter1_d_309_1331)">
<path d="M16.6667 29.1665V31.2498C16.6667 31.8024 16.8862 32.3323 17.2769 32.723C17.6676 33.1137 18.1975 33.3332 18.7501 33.3332H20.8334" stroke="white" stroke-width="2" stroke-linecap="round" stroke-linejoin="round" shape-rendering="crispEdges"/>
</g>
<path d="M29.1667 16.6665H31.2501C31.8026 16.6665 32.3325 16.886 32.7232 17.2767C33.1139 17.6674 33.3334 18.1973 33.3334 18.7498V20.8332" stroke="white" stroke-width="2" stroke-linecap="round" stroke-linejoin="round"/>
<path d="M29.1667 33.3332H31.2501C31.8026 33.3332 32.3325 33.1137 32.7232 32.723C33.1139 32.3323 33.3334 31.8024 33.3334 31.2498V29.1665" stroke="white" stroke-width="2" stroke-linecap="round" stroke-linejoin="round"/>
<path d="M24.9999 31.2501L21.3541 26.0418C21.0031 25.4074 20.8237 24.6925 20.8336 23.9676C20.8436 23.2427 21.0424 22.5329 21.4106 21.9084C21.7788 21.2839 22.3036 20.7663 22.9331 20.4067C23.5625 20.0471 24.275 19.8579 24.9999 19.8579C25.7249 19.8579 26.4373 20.0471 27.0668 20.4067C27.6963 20.7663 28.221 21.2839 28.5892 21.9084C28.9574 22.5329 29.1563 23.2427 29.1662 23.9676C29.1761 24.6925 28.9967 25.4074 28.6458 26.0418L24.9999 31.2501Z" fill="white" stroke="white" stroke-width="2" stroke-linecap="round" stroke-linejoin="round"/>
<path d="M25 23.9585V23.9689" stroke="#450AA7" stroke-width="6" stroke-linecap="round" stroke-linejoin="round"/>
</g>
<defs>
<filter id="filter0_d_309_1331" x="13.6667" y="13.6665" width="14.1666" height="14.1665" filterUnits="userSpaceOnUse" color-interpolation-filters="sRGB">
<feFlood flood-opacity="0" result="BackgroundImageFix"/>
<feColorMatrix in="SourceAlpha" type="matrix" values="0 0 0 0 0 0 0 0 0 0 0 0 0 0 0 0 0 0 127 0" result="hardAlpha"/>
<feOffset dx="2" dy="2"/>
<feGaussianBlur stdDeviation="2"/>
<feComposite in2="hardAlpha" operator="out"/>
<feColorMatrix type="matrix" values="0 0 0 0 0.439216 0 0 0 0 0.396078 0 0 0 0 0.941176 0 0 0 0.1 0"/>
<feBlend mode="normal" in2="BackgroundImageFix" result="effect1_dropShadow_309_1331"/>
<feBlend mode="normal" in="SourceGraphic" in2="effect1_dropShadow_309_1331" result="shape"/>
</filter>
<filter id="filter1_d_309_1331" x="13.6667" y="26.1665" width="14.1666" height="14.1665" filterUnits="userSpaceOnUse" color-interpolation-filters="sRGB">
<feFlood flood-opacity="0" result="BackgroundImageFix"/>
<feColorMatrix in="SourceAlpha" type="matrix" values="0 0 0 0 0 0 0 0 0 0 0 0 0 0 0 0 0 0 127 0" result="hardAlpha"/>
<feOffset dx="2" dy="2"/>
<feGaussianBlur stdDeviation="2"/>
<feComposite in2="hardAlpha" operator="out"/>
<feColorMatrix type="matrix" values="0 0 0 0 0.439216 0 0 0 0 0.396078 0 0 0 0 0.941176 0 0 0 0.1 0"/>
<feBlend mode="normal" in2="BackgroundImageFix" result="effect1_dropShadow_309_1331"/>
<feBlend mode="normal" in="SourceGraphic" in2="effect1_dropShadow_309_1331" result="shape"/>
</filter>
<clipPath id="clip0_309_1331">
<rect width="25" height="25" fill="white" transform="translate(12.5 12.5)"/>
</clipPath>
</defs>
</svg>
