<svg width="50" height="50" viewBox="0 0 50 50" fill="none" xmlns="http://www.w3.org/2000/svg">
<circle cx="25" cy="25" r="24.5" fill="white" stroke="#E0DEF7"/>
<circle cx="25" cy="25" r="21.875" fill="#E0DEF7"/>
<g clip-path="url(#clip0_309_1297)">
<path fill-rule="evenodd" clip-rule="evenodd" d="M14.5833 25.0002H16.8981V33.102C16.8981 33.7159 17.142 34.3047 17.5761 34.7388C18.0102 35.1729 18.599 35.4168 19.2129 35.4168H30.787C31.4009 35.4168 31.9897 35.1729 32.4238 34.7388C32.8579 34.3047 33.1018 33.7159 33.1018 33.102V25.0002H33.1019H35.4167L25 14.5835L14.5833 25.0002Z" fill="white"/>
<path d="M16.8981 25.0002H17.8981C17.8981 24.4479 17.4504 24.0002 16.8981 24.0002V25.0002ZM14.5833 25.0002L13.8762 24.2931C13.5902 24.5791 13.5047 25.0092 13.6595 25.3828C13.8142 25.7565 14.1789 26.0002 14.5833 26.0002V25.0002ZM17.5761 34.7388L16.869 35.4459H16.869L17.5761 34.7388ZM32.4238 34.7388L33.1309 35.4459L33.1309 35.4459L32.4238 34.7388ZM33.1018 25.0002V24.0002C32.5495 24.0002 32.1018 24.4479 32.1018 25.0002H33.1018ZM35.4167 25.0002V26.0002C35.8211 26.0002 36.1858 25.7565 36.3406 25.3828C36.4953 25.0092 36.4098 24.5791 36.1238 24.2931L35.4167 25.0002ZM25 14.5835L25.7071 13.8764C25.5196 13.6889 25.2652 13.5835 25 13.5835C24.7348 13.5835 24.4804 13.6889 24.2929 13.8764L25 14.5835ZM16.8981 24.0002H14.5833V26.0002H16.8981V24.0002ZM15.8981 25.0002V33.102H17.8981V25.0002H15.8981ZM15.8981 33.102C15.8981 33.9812 16.2473 34.8243 16.869 35.4459L18.2832 34.0317C18.0366 33.7852 17.8981 33.4507 17.8981 33.102H15.8981ZM16.869 35.4459C17.4906 36.0676 18.3338 36.4168 19.2129 36.4168V34.4168C18.8642 34.4168 18.5298 34.2783 18.2832 34.0317L16.869 35.4459ZM19.2129 36.4168H30.787V34.4168H19.2129V36.4168ZM30.787 36.4168C31.6661 36.4168 32.5093 36.0676 33.1309 35.4459L31.7167 34.0317C31.4701 34.2783 31.1357 34.4168 30.787 34.4168V36.4168ZM33.1309 35.4459C33.7526 34.8243 34.1018 33.9812 34.1018 33.102H32.1018C32.1018 33.4507 31.9633 33.7852 31.7167 34.0317L33.1309 35.4459ZM34.1018 33.102V25.0002H32.1018V33.102H34.1018ZM33.1019 24.0002H33.1018V26.0002H33.1019V24.0002ZM35.4167 24.0002H33.1019V26.0002H35.4167V24.0002ZM24.2929 15.2906L34.7096 25.7073L36.1238 24.2931L25.7071 13.8764L24.2929 15.2906ZM15.2905 25.7073L25.7071 15.2906L24.2929 13.8764L13.8762 24.2931L15.2905 25.7073Z" fill="white"/>
<path d="M21.875 26.5628L23.9583 28.6462L28.125 24.4795" stroke="#450AA7" stroke-width="2" stroke-linecap="round" stroke-linejoin="round"/>
</g>
<path d="M31.25 31.25H50V40.625C50 45.8027 45.8027 50 40.625 50C35.4473 50 31.25 45.8027 31.25 40.625V31.25Z" fill="#450AA7"/>
<path d="M44.0313 36.547L41.1667 35.4741C40.8698 35.3647 40.3854 35.3647 40.0886 35.4741L37.224 36.547C36.6719 36.7554 36.224 37.4012 36.224 37.9897V42.2085C36.224 42.6304 36.5 43.1877 36.8386 43.4377L39.7031 45.5783C40.2083 45.9585 41.0365 45.9585 41.5417 45.5783L44.4063 43.4377C44.7448 43.1825 45.0208 42.6304 45.0208 42.2085V37.9897C45.0261 37.4012 44.5781 36.7554 44.0313 36.547ZM41.0156 41.0783V42.4481C41.0156 42.6616 40.8386 42.8387 40.625 42.8387C40.4115 42.8387 40.2344 42.6616 40.2344 42.4481V41.0783C39.7083 40.9116 39.3229 40.422 39.3229 39.8439C39.3229 39.1252 39.9063 38.5418 40.625 38.5418C41.3438 38.5418 41.9271 39.1252 41.9271 39.8439C41.9271 40.4272 41.5417 40.9116 41.0156 41.0783Z" fill="white"/>
<defs>
<clipPath id="clip0_309_1297">
<rect width="25" height="25" fill="white" transform="translate(12.5 12.5)"/>
</clipPath>
</defs>
</svg>
